<svg id="Capa_1" data-name="Capa 1" xmlns="http://www.w3.org/2000/svg" viewBox="0 0 24.33 19.2"><defs><style>.cls-1{fill:none;stroke:#fff;stroke-linecap:round;stroke-linejoin:round;}</style></defs><circle class="cls-1" cx="7.36" cy="11.64" r="2.24"/><circle class="cls-1" cx="20.05" cy="11.64" r="2.24"/><path class="cls-1" d="M16.71,6.77h-3A2.83,2.83,0,0,0,10.8,9.55v1.57h9.3V10A3.33,3.33,0,0,0,16.71,6.77Z" transform="translate(-1.87 -4.43)"/><polyline class="cls-1" points="3.96 9.07 2.57 9.07 2.57 11.09 3.85 11.09"/><path class="cls-1" d="M12.38,21.48H4.44a2.07,2.07,0,0,1-2.07-2.06V16.51a2.07,2.07,0,0,1,2.07-2.06" transform="translate(-1.87 -4.43)"/><path class="cls-1" d="M12,19.93h3.59a0,0,0,0,1,0,0v1.4a1.41,1.41,0,0,1-1.41,1.41h-.76A1.41,1.41,0,0,1,12,21.33v-1.4A0,0,0,0,1,12,19.93Z" transform="translate(33.25 3.12) rotate(90)"/><line class="cls-1" x1="13.82" y1="15.83" x2="14.85" y2="15.83"/><line class="cls-1" x1="13.82" y1="17.99" x2="14.85" y2="17.99"/><line class="cls-1" x1="13.32" y1="2.34" x2="13.32" y2="6.69"/><path class="cls-1" d="M23.8,11.61a.8.8,0,0,1-.53-.74h0a5.94,5.94,0,0,0-5.94-5.94h-4a5.19,5.19,0,0,0-5.19,5.19v.75a.79.79,0,0,1-.52.74,2.84,2.84,0,0,0-1.91,2.68v1.42a.77.77,0,0,0,.77.77H7a2.71,2.71,0,0,1,0-.41,2.24,2.24,0,0,1,4.48,0,2.71,2.71,0,0,1,0,.41h8.29a2.71,2.71,0,0,1,0-.41,2.24,2.24,0,0,1,4.48,0,2.71,2.71,0,0,1,0,.41h.81a.77.77,0,0,0,.78-.77V14.29A2.84,2.84,0,0,0,23.8,11.61Z" transform="translate(-1.87 -4.43)"/></svg>