<svg id="Capa_1" data-name="Capa 1" xmlns="http://www.w3.org/2000/svg" viewBox="0 0 14.12 21.96"><defs><style>.cls-1{fill:#fff;}.cls-2{fill:none;stroke:#fff;stroke-linecap:round;stroke-linejoin:round;stroke-width:0.25px;}</style></defs><path class="cls-1" d="M20.81,4.38C20,3.44,16.86,3,14,3s-6.05.42-6.85,1.36a.37.37,0,0,0-.21.34v18C6.9,24.06,10.62,25,14,25S21,24.06,21,22.73v-18A.38.38,0,0,0,20.81,4.38Zm-.56,13.51C20.14,18.29,17.88,19,14,19s-6.19-.73-6.3-1.12v-7c1.38.73,4.34.95,6.3.95s4.92-.22,6.29-.95Zm0-7.94c-.11.4-2.37,1.13-6.29,1.13S7.77,10.35,7.66,10V5.84c1.38.73,4.34,1,6.3,1s4.92-.22,6.29-1ZM14,3.78c3.66,0,6,.66,6.29,1.12C20.1,5.3,17.85,6,14,6S7.79,5.3,7.66,4.91C7.91,4.44,10.29,3.78,14,3.78Zm0,20.44c-3.7,0-6.22-1-6.3-1.49v-3.9c1.38.73,4.34,1,6.3,1s4.92-.22,6.29-1v3.9C20.18,23.17,17.66,24.22,14,24.22Z" transform="translate(-6.9 -3.02)"/><polygon class="cls-2" points="6.22 9.86 8.29 9.86 7.3 12.03 8.38 12.03 6.21 15.28 6.57 13.03 5.68 13.03 6.22 9.86"/></svg>