<svg id="Capa_1" data-name="Capa 1" xmlns="http://www.w3.org/2000/svg" viewBox="0 0 13.02 20.26"><defs><style>.cls-1{fill:#fff;}.cls-2{fill:none;stroke:#fff;stroke-linecap:round;stroke-linejoin:round;stroke-width:0.5px;}</style></defs><path class="cls-1" d="M20.27,5.11c-.73-.87-3.64-1.26-6.31-1.26s-5.58.39-6.32,1.26a.34.34,0,0,0-.19.31V22c0,1.23,3.43,2.08,6.51,2.08s6.51-.85,6.51-2.08V5.42A.33.33,0,0,0,20.27,5.11Zm-.5,12.46c-.11.36-2.19,1-5.81,1s-5.71-.68-5.81-1V11.11c1.27.67,4,.88,5.81.88s4.53-.21,5.81-.88Zm0-7.33c-.11.37-2.19,1-5.81,1s-5.71-.68-5.81-1V6.45c1.27.67,4,.88,5.81.88s4.53-.21,5.81-.88ZM14,4.55c3.38,0,5.57.61,5.8,1-.13.37-2.21,1-5.8,1S8.27,6,8.15,5.59C8.38,5.16,10.58,4.55,14,4.55ZM14,23.4c-3.41,0-5.74-1-5.81-1.37V18.44c1.27.67,4,.87,5.81.87s4.53-.2,5.81-.87V22C19.7,22.44,17.37,23.4,14,23.4Z" transform="translate(-7.45 -3.85)"/><polygon class="cls-2" points="5.69 8.93 7.71 8.93 6.74 11.05 7.8 11.05 5.68 14.23 6.03 12.03 5.17 12.03 5.69 8.93"/></svg>