<svg id="Capa_1" data-name="Capa 1" xmlns="http://www.w3.org/2000/svg" viewBox="0 0 21.07 20.26"><defs><style>.cls-1{fill:#fff;}</style></defs><path class="cls-1" d="M22.79,4.2a.41.41,0,0,0-.39-.35H5.87a.4.4,0,0,0-.39.34L3.43,17.41a.4.4,0,0,0,.1.32.37.37,0,0,0,.3.14H11.4L10,21.77H7.67a.4.4,0,0,0-.4.4v1.55a.4.4,0,0,0,.4.4H21a.39.39,0,0,0,.39-.4V22.17a.39.39,0,0,0-.39-.4H18l-1.41-3.9H24.1a.4.4,0,0,0,.41-.39.32.32,0,0,0,0-.14ZM5.18,11.31h3l-.27,2.48H4.8ZM5.69,8H8.53l-.27,2.49H5.31ZM22.8,10.51H19.9L19.7,8h2.78Zm-3.7,0H16.22L16.15,8H18.9Zm-6.36,0L12.87,8h2.49l.07,2.49Zm2.71.8.06,2.48H12.56l.13-2.48Zm.69-4.08-.07-2.57s2.57,0,2.57,0,.2,2.58.2,2.58Zm-.8,0H12.91l.14-2.54s2.23,0,2.23,0S15.34,7.23,15.34,7.23ZM12.25,4.65l-.14,2.58H9.41l.27-2.52c0-.06,2.57-.06,2.57-.06ZM12.07,8l-.13,2.49H9.06L9.33,8ZM9,11.31H11.9l-.13,2.48H8.71Zm2.74,3.28-.13,2.49H8.36l.27-2.49Zm.8,0h3l.06,2.49H12.38Zm3.81,0h3.1l.19,2.49H16.4Zm0-.8-.07-2.48h2.92l.2,2.48ZM20,11.31H22.9l.32,2.48H20.16Zm2.42-4.08H19.63l-.2-2.58h2.62ZM6.22,4.65H8.89L8.61,7.23H5.82ZM4.68,14.59H7.83l-.27,2.49H4.29Zm16,8.73H8.07v-.75H20.64Zm-9.81-1.55,1.41-3.9h3.54l1.42,3.9Zm9.59-4.69-.2-2.49h3.11l.32,2.49Z" transform="translate(-3.43 -3.85)"/></svg>