<svg id="Capa_1" data-name="Capa 1" xmlns="http://www.w3.org/2000/svg" viewBox="0 0 26.27 20.71"><defs><style>.cls-1{fill:none;stroke:#fff;stroke-linecap:round;stroke-linejoin:round;}</style></defs><circle class="cls-1" cx="7.93" cy="12.57" r="2.42"/><circle class="cls-1" cx="21.67" cy="12.57" r="2.42"/><path class="cls-1" d="M16.9,6.18H13.62a3.07,3.07,0,0,0-3.13,3v1.71H20.56V9.7A3.6,3.6,0,0,0,16.9,6.18Z" transform="translate(-0.86 -3.68)"/><polyline class="cls-1" points="4.25 9.79 2.74 9.79 2.74 11.97 4.13 11.97"/><path class="cls-1" d="M12.2,22.11H3.6a2.23,2.23,0,0,1-2.24-2.23V16.73A2.24,2.24,0,0,1,3.6,14.49" transform="translate(-0.86 -3.68)"/><path class="cls-1" d="M11.79,20.43h3.88a0,0,0,0,1,0,0v1.51a1.53,1.53,0,0,1-1.53,1.53h-.82a1.53,1.53,0,0,1-1.53-1.53V20.43A0,0,0,0,1,11.79,20.43Z" transform="translate(34.82 4.55) rotate(90)"/><line class="cls-1" x1="14.93" y1="17.1" x2="16.04" y2="17.1"/><line class="cls-1" x1="14.93" y1="19.44" x2="16.04" y2="19.44"/><line class="cls-1" x1="14.39" y1="2.5" x2="14.39" y2="7.2"/><path class="cls-1" d="M24.57,11.42a.85.85,0,0,1-.57-.8h0a6.44,6.44,0,0,0-6.44-6.44H13.24A5.62,5.62,0,0,0,7.62,9.8v.82a.85.85,0,0,1-.57.8A3.08,3.08,0,0,0,5,14.33v1.53a.84.84,0,0,0,.84.84h.58a2.12,2.12,0,0,1,0-.44,2.43,2.43,0,1,1,4.85,0,3.13,3.13,0,0,1,0,.44h9a3.13,3.13,0,0,1,0-.44,2.43,2.43,0,1,1,4.85,0,3.13,3.13,0,0,1,0,.44h.87a.84.84,0,0,0,.84-.84V14.33A3.08,3.08,0,0,0,24.57,11.42Z" transform="translate(-0.86 -3.68)"/></svg>